<?xml version="1.0" encoding="UTF-8" standalone="yes"?>
<svg width="46mm" height="46mm" viewBox="0 0 46 46" version="1.2" baseProfile="tiny-ps" xmlns="http://www.w3.org/2000/svg">
  <title>Schumann.Engineering logo, black+black, square</title>
  <g transform="translate(-58.213655,-53.582185)">
    <g>
      <g transform="matrix(0.98684029,0,0,1.0133352,0,12)">
        <path d="m 81.873217,66.894603 q 0,0.82541 -0.214393,1.490026 -0.203672,0.653896 -0.5467,1.157718 -0.343027,0.503822 -0.803971,0.85757 -0.460944,0.353747 -0.954046,0.578859 -0.493102,0.225111 -1.007643,0.332307 -0.503822,0.107196 -0.954046,0.107196 H 66.640646 V 68.63118 h 10.751772 q 0.803971,0 1.243475,-0.471663 0.450224,-0.471663 0.450224,-1.264914 0,-0.385907 -0.117916,-0.707495 -0.117916,-0.321588 -0.343027,-0.55742 -0.214392,-0.235831 -0.535981,-0.364466 -0.310869,-0.128636 -0.696775,-0.128636 h -6.410329 q -0.675336,0 -1.457868,-0.235831 -0.782531,-0.246551 -1.457866,-0.782532 -0.664617,-0.53598 -1.114841,-1.404269 -0.439503,-0.868289 -0.439503,-2.122484 0,-1.254194 0.439503,-2.111764 0.450224,-0.868288 1.114841,-1.404269 0.675335,-0.5467 1.457866,-0.782532 0.782532,-0.246551 1.457868,-0.246551 h 9.486858 v 2.787099 h -9.486858 q -0.793251,0 -1.243475,0.482383 -0.439504,0.482383 -0.439504,1.275634 0,0.803971 0.439504,1.275634 0.450224,0.460944 1.243475,0.460944 h 6.410329 0.02144 q 0.450223,0.01072 0.954045,0.128635 0.503822,0.107196 0.996924,0.343028 0.503823,0.235831 0.954046,0.600298 0.450224,0.353747 0.793251,0.857569 0.353748,0.503822 0.55742,1.157718 0.203673,0.653897 0.203673,1.479307 z" fill="#000000" fill-opacity="1" stroke-width="0.0605061"/>
        <path d="m 96.827078,65.136586 h -8.800803 v -2.808538 h 8.800803 z m 1.254197,6.281693 h -10.055 q -0.578859,0 -1.264914,-0.203672 -0.686056,-0.203673 -1.275634,-0.664615 -0.57886,-0.471664 -0.975485,-1.211317 -0.385906,-0.750373 -0.385906,-1.833054 V 57.450623 q 0,-0.28943 0.107196,-0.5467 0.107197,-0.257271 0.28943,-0.450224 0.192952,-0.192953 0.450223,-0.300149 0.257271,-0.107196 0.557421,-0.107196 h 12.552669 v 2.787099 H 86.911436 v 8.672168 q 0,0.5467 0.289429,0.83613 0.28943,0.289429 0.846849,0.289429 h 10.033561 z" fill="#000000" fill-opacity="1" stroke-width="0.0605061"/>
      </g>
      <path d="M 61.309809,86.101416 V 67.062954 h 4.326923 v 0.782096 c 0,0.163868 -0.05487,0.294217 -0.164611,0.391048 -0.101902,0.08938 -0.239078,0.134073 -0.411528,0.134073 H 63.0735 v 17.731245 c -0.0075,-0.0034 -1.763691,0 -1.763691,0 z" fill="#000000" fill-opacity="1" stroke-width="0.238784"/>
      <path d="m 96.790578,85.319864 c 0,-0.148867 0.05092,-0.275402 0.152853,-0.379607 0.109748,-0.104207 0.250842,-0.15631 0.423285,-0.15631 h 1.987093 V 67.065146 c 0,0 1.754191,-0.0049 1.763701,0 v 19.036262 h -4.326932 z" fill="#000000" fill-opacity="1" stroke-width="0.238699"/>
    </g>
  </g>
</svg>