<?xml version="1.0" encoding="UTF-8"?>
<svg width="46mm" height="22mm" version="1.1" viewBox="0 0 46 22" xmlns="http://www.w3.org/2000/svg">
   <title>Schumann.Engineering logo, black+black</title>
   <g transform="translate(-58.214 -53.582)">
      <g>
         <g transform="scale(.98684 1.0133)" stroke-width=".069918">
            <path d="m81.807 67.387q0 0.95381-0.24774 1.7218-0.23536 0.75561-0.63174 1.3378-0.39639 0.58219-0.92903 0.99097t-1.1025 0.6689-1.1644 0.384q-0.58219 0.12387-1.1025 0.12387h-12.424v-3.2206h12.424q0.92903 0 1.4369-0.54503 0.52026-0.54503 0.52026-1.4617 0-0.44594-0.13626-0.81755-0.13626-0.37161-0.39639-0.64413-0.24774-0.27252-0.61936-0.42116-0.35923-0.14865-0.80516-0.14865h-7.4075q-0.78039 0-1.6846-0.27252-0.90426-0.2849-1.6846-0.90426-0.768-0.61936-1.2883-1.6227-0.50787-1.0034-0.50787-2.4526 0-1.4493 0.50787-2.4403 0.52026-1.0034 1.2883-1.6227 0.78039-0.63174 1.6846-0.90426 0.90426-0.2849 1.6846-0.2849h10.963v3.2206h-10.963q-0.91665 0-1.4369 0.55742-0.50787 0.55742-0.50787 1.4741 0 0.92903 0.50787 1.4741 0.52026 0.53265 1.4369 0.53265h7.4323q0.52026 0.01239 1.1025 0.14864 0.58219 0.12387 1.152 0.39639 0.5822 0.27252 1.1025 0.69368 0.52026 0.40877 0.91665 0.99097 0.40878 0.58219 0.64413 1.3378 0.23536 0.75561 0.23536 1.7094z" fill="#000000"/>
            <path d="m99.087 65.355h-10.17v-3.2454h10.17zm1.4493 7.2588h-11.619q-0.6689 0-1.4617-0.23536t-1.4741-0.768q-0.6689-0.54503-1.1272-1.3997-0.44594-0.8671-0.44594-2.1182v-11.619q0-0.33445 0.12387-0.63174 0.12387-0.29729 0.33445-0.52026 0.22297-0.22297 0.52026-0.34684t0.64413-0.12387h14.505v3.2206h-12.907v10.021q0 0.63174 0.33445 0.96619t0.97858 0.33445h11.594z" fill="#000000"/>
         </g>
         <path d="m58.214 75.582v-22h5v0.90376c0 0.18936-0.06341 0.33998-0.19022 0.45188-0.11775 0.10329-0.27627 0.15493-0.47554 0.15493h-2.2962v20.489c-0.0087-0.0039-2.038 0-2.038 0z" fill="#000000" stroke-width=".27593"/>
         <path d="m99.214 74.679c0-0.17202 0.05884-0.31824 0.17663-0.43866 0.12682-0.12042 0.28986-0.18062 0.48913-0.18062h2.2962v-20.475s2.0271-0.0057 2.038 0v21.997h-5z" fill="#000000" stroke-width=".27583"/>
      </g>
   </g>
</svg>
